<?xml version="1.0" encoding="utf-8"?>
<!-- Generator: Adobe Illustrator 15.0.2, SVG Export Plug-In  -->
<!DOCTYPE svg PUBLIC "-//W3C//DTD SVG 1.1//EN" "http://www.w3.org/Graphics/SVG/1.1/DTD/svg11.dtd" [
	<!ENTITY ns_flows "http://ns.adobe.com/Flows/1.0/">
]>
<svg version="1.1"
	 xmlns="http://www.w3.org/2000/svg" xmlns:xlink="http://www.w3.org/1999/xlink" xmlns:a="http://ns.adobe.com/AdobeSVGViewerExtensions/3.0/"
	 x="0px" y="0px" width="854px" height="146px" viewBox="-4.55 -5.645 854 146" enable-background="new -4.55 -5.645 854 146"
	 xml:space="preserve">
<defs>
</defs>
<path fill="#56A0D3" d="M0,2.505h24.375v11.157c4.167-4.584,8.799-8.005,13.888-10.268C43.361,1.133,48.913,0,54.93,0
	c6.071,0,11.553,1.494,16.437,4.463c4.885,2.979,8.818,7.326,11.798,13.041c3.867-5.715,8.621-10.063,14.242-13.041
	C103.042,1.494,109.187,0,115.865,0c6.904,0,12.985,1.608,18.217,4.822c5.245,3.217,9.01,7.412,11.307,12.59
	c2.3,5.179,3.442,13.602,3.442,25.266v56.959h-24.554V50.355c0-11.006-1.365-18.465-4.106-22.358
	c-2.731-3.907-6.844-5.852-12.322-5.852c-4.164,0-7.899,1.19-11.208,3.565c-3.302,2.387-5.759,5.672-7.36,9.868
	s-2.409,10.94-2.409,20.224v43.834H62.319V52.589c0-8.692-0.642-14.983-1.927-18.883c-1.283-3.897-3.203-6.8-5.765-8.706
	c-2.571-1.906-5.673-2.854-9.313-2.854c-4.058,0-7.75,1.209-11.048,3.618c-3.315,2.408-5.794,5.785-7.428,10.133
	c-1.649,4.339-2.463,11.188-2.463,20.532v43.208H0V2.505z"/>
<polygon fill="#56A0D3" points="231.513,2.505 203.666,63.447 178.439,2.505 153.525,2.505 190.455,92.392 170.482,135.172 
	195.652,135.172 256.487,2.505 "/>
<path fill="#174A7C" d="M310.936,2.505h-23.151l-52.878,96.677l-0.237,0.436h17.881l11.086-20.437h72.611l11.191,20.437h17.674
	L311.02,2.655L310.936,2.505z M331.177,70.391h-62.58l31.082-58.064L331.177,70.391z"/>
<path fill="#174A7C" d="M485.882,11.695c-7.342-6.099-21.509-9.19-42.105-9.19h-67.022v97.112h71.14
	c19.493,0,32.691-3.577,39.229-10.631c6.533-7.048,9.845-21.223,9.845-42.133C496.968,29.635,493.237,17.807,485.882,11.695z
	 M393.6,12.285h49.966c16.238,0,26.629,2.322,30.88,6.906c4.257,4.59,6.415,15.729,6.415,33.107c0,15.821-2.49,26.146-7.402,30.687
	c-4.92,4.547-16.078,6.853-33.166,6.853H393.6V12.285z"/>
<path fill="#174A7C" d="M600.796,65.155l-6.24,10.061c-0.482,0.925-1.474,2.607-2.949,5.008l-2.871,4.876h-0.087l-2.874-4.88
	l-9.186-15.135l-38.433-62.44l-0.087-0.14h-28.648v97.112h16.847v-82.83l-0.194-4.874c0.432,0.813,0.813,1.464,1.123,1.919
	l1.277,2.277l2.848,4.453l49.203,78.916l0.086,0.139h16.587l49.185-79.979l2.74-4.52c0.214-0.331,0.631-1.053,1.277-2.207
	l1.125-2.01l-0.196,5.402v83.313h16.847V2.505h-29.071L600.796,65.155z"/>
<rect x="685.411" y="2.505" fill="#174A7C" width="16.846" height="97.112"/>
<polygon fill="#174A7C" points="826.347,2.505 826.347,83.28 826.548,90.249 819.886,82.79 813.024,75.296 799.298,60.162 
	746.61,2.601 746.522,2.505 719.493,2.505 719.493,99.617 736.34,99.617 736.34,19.338 736.138,12.367 755.575,33.828 
	816.058,99.617 843.192,99.617 843.192,2.505 "/>
</svg>
