<svg id="Layer_1" enable-background="new 0 0 256 256" height="512" viewBox="0 0 256 256" width="512" xmlns="http://www.w3.org/2000/svg"><g><g><g><path d="m35.308 10.5h148v235h-148z" fill="#ff4a73"/><path d="m35.308 10.5h15v235h-15z" fill="#f973a3"/><path d="m168.308 10.5h15v235h-15z" fill="#ea2a6a"/><path d="m183.308 38.867v26.075s-35.657-10.942-62.981 27.725c0 0 8.553-53.076 62.981-53.8z" fill="#ffefee"/></g><g><path d="m192.447 71.373c-4.871-4.871-7.788-10.947-8.765-17.271-.494-3.182-.488-6.424 0-9.6v-.006c.9-5.794 3.429-11.377 7.588-16.006 12.177-13.512 32.801-13.736 45.295-1.241 4.812 4.812 7.765 10.877 8.759 17.242v.012c.494 3.171.5 6.412.006 9.612 0 0-.918 9.418-8.765 17.259-12.182 12.176-31.935 12.176-44.118-.001z" fill="#44c7b6"/><path d="m191.271 38.143c-4.147 4.618-6.677 10.188-7.588 15.959-1.388-8.977 1.153-18.442 7.588-25.612 12.177-13.512 32.801-13.736 45.295-1.241 7.212 7.212 10.253 17.247 8.765 26.865-.006.006-.006.018-.006.024-.9-5.782-3.424-11.365-7.588-15.994-.371-.424-.765-.841-1.171-1.247-12.188-12.183-31.936-12.183-44.119 0-.406.405-.8.823-1.176 1.246z" fill="#4bdbc3"/><path d="m192.447 71.373c-4.871-4.871-7.788-10.947-8.765-17.271-.494-3.182-.488-6.424 0-9.6.906 5.782 3.435 11.353 7.588 15.983.382.418.771.829 1.176 1.235 12.183 12.183 31.93 12.183 44.119 0 .406-.406.794-.818 1.171-1.235 4.165-4.63 6.682-10.206 7.588-15.983.494 3.171.5 6.412.006 9.612 0 0-.918 9.418-8.765 17.259-12.182 12.177-31.935 12.177-44.118 0z" fill="#3bb2a0"/></g></g><g fill="#5f266d"><path d="m183.308 6.5h-148c-2.209 0-4 1.791-4 4v78.167h-21c-2.209 0-4 1.791-4 4v57.333c0 2.209 1.791 4 4 4s4-1.791 4-4v-18h17v113.5c0 2.209 1.791 4 4 4h148c2.209 0 4-1.791 4-4v-113.5h16.375v18c0 2.209 1.791 4 4 4s4-1.791 4-4v-57.333c0-2.209-1.791-4-4-4h-20.375v-17.012c.722.877 1.492 1.728 2.312 2.547 6.862 6.859 15.873 10.287 24.887 10.287 9.012 0 18.026-3.43 24.887-10.287 13.928-13.928 13.531-36.252 0-49.781-6.793-6.792-16.194-10.539-25.812-10.297-9.736.252-18.715 4.403-25.289 11.695-.34.378-.665.765-.985 1.154v-16.473c0-2.209-1.791-4-4-4zm-152 117.5h-17v-9.979h17zm0-17.979h-17v-9.354h17zm32.969-91.521h90.066v26.571c-11.029 5.097-20.274 13.303-27.196 24.179h-62.87zm49.033 91.521v-9.354h7.011.005.004 9.98v9.354zm17 8v9.979h-17v-9.979zm-66.033-40.771h58.426c-3.08 6.387-4.765 12.021-5.605 15.417h-52.821zm24.033 32.771v-9.354h17v9.354zm17 8v9.979h-17v-9.979zm-41.033-17.354h16.033v9.354h-16.033zm0 17.354h16.033v9.979h-16.033zm-8 127.479h-16.969v-109.5h16.969zm0-117.5h-16.969v-9.979h16.969zm0-17.979h-16.969v-9.354h16.969zm0-17.354h-16.969v-74.167h16.969zm98.066 152.833h-90.066v-50.75h90.066zm0-58.75h-90.066v-50.75h90.066zm0-58.75h-16.033v-9.979h16.033zm0-17.979h-16.033v-9.354h16.033zm0-17.354h-25.838c8.587-9.994 17.651-15.453 25.838-18.32zm24.965 152.833h-16.965v-109.5h16.965zm0-117.5h-16.965v-9.979h16.965zm0-17.979h-16.965v-9.354h16.965zm0-17.354h-16.965v-20.423c7.47-1.333 13.584-.716 16.965-.114zm0-28.608c-16.087-2.287-33.781 2.331-48.635 15.134 9.636-18.885 25.786-30.666 48.635-32.168zm0-25.037c-6.254.377-11.892 1.435-16.965 2.995v-23.517h16.965zm24.375 88.978h-16.375v-9.979h16.375zm0-27.333v9.354h-16.375v-9.354zm-6.668-26.537c10.077-8.479 24.903-8.478 34.981.001-10.078 8.475-24.903 8.475-34.981-.001zm16.775-48.01c.244-.006.487-.009.73-.009 6.474 0 12.577 2.24 17.477 6.376-10.076 8.479-24.901 8.481-34.979.003 4.709-3.969 10.54-6.208 16.772-6.37zm-22.083 12.352c6.55 5.579 14.671 8.378 22.798 8.378 8.12 0 16.235-2.794 22.782-8.364 5.424 8.369 6.324 19.842-.004 29.644-13.097-11.14-32.48-11.134-45.573.014-3.006-4.611-4.482-9.94-4.402-15.259v-.104c.095-4.988 1.558-9.958 4.399-14.309z"/><path d="m139.308 36h1.5c2.209 0 4-1.791 4-4s-1.791-4-4-4h-1.5c-2.209 0-4 1.791-4 4s1.791 4 4 4z"/><path d="m124.308 28h-20c-2.209 0-4 1.791-4 4s1.791 4 4 4h20c2.209 0 4-1.791 4-4s-1.791-4-4-4z"/></g></g></svg>