<?xml version="1.0" encoding="iso-8859-1"?>
<!-- Generator: Adobe Illustrator 19.0.0, SVG Export Plug-In . SVG Version: 6.00 Build 0)  -->
<svg version="1.1" id="Capa_1" xmlns="http://www.w3.org/2000/svg" xmlns:xlink="http://www.w3.org/1999/xlink" x="0px" y="0px"
	 viewBox="0 0 468.261 468.261" style="enable-background:new 0 0 468.261 468.261;" xml:space="preserve">
<g>
	<rect y="67.101" style="fill:#D5D6DB;" width="51.481" height="23.583"/>
	<rect x="416.78" y="67.101" style="fill:#D5D6DB;" width="51.481" height="23.583"/>
	<polygon style="fill:#D5D6DB;" points="324.151,67.098 311.71,67.098 42.097,67.098 42.097,90.68 311.71,90.68 324.151,90.68 
		426.196,90.68 426.196,67.098 	"/>
</g>
<path style="fill:#64798A;" d="M51.498,27.216h-0.03c-7.668,0-13.883,6.216-13.883,13.884v75.579
	c0,7.668,6.216,13.884,13.883,13.884h0.03c7.668,0,13.884-6.216,13.884-13.884V41.1C65.382,33.432,59.166,27.216,51.498,27.216z"/>
<path style="fill:#3A556A;" d="M79.295,12.209h-0.03c-7.668,0-13.883,6.216-13.883,13.884v105.594
	c0,7.668,6.216,13.884,13.883,13.884h0.03c7.668,0,13.884-6.216,13.884-13.884V26.093C93.179,18.425,86.963,12.209,79.295,12.209z"
	/>
<path style="fill:#64798A;" d="M416.795,27.216h0.03c7.668,0,13.883,6.216,13.883,13.884v75.579c0,7.668-6.216,13.884-13.883,13.884
	h-0.03c-7.668,0-13.884-6.216-13.884-13.884V41.1C402.911,33.432,409.127,27.216,416.795,27.216z"/>
<path style="fill:#3A556A;" d="M388.998,12.209h0.03c7.668,0,13.883,6.216,13.883,13.884v105.594
	c0,7.668-6.216,13.884-13.883,13.884h-0.03c-7.668,0-13.884-6.216-13.884-13.884V26.093
	C375.114,18.425,381.33,12.209,388.998,12.209z"/>
<rect x="131.815" y="111.464" style="fill:#64798A;" width="34.004" height="325.682"/>
<polygon style="fill:#3EA69B;" points="179.979,118.067 117.638,118.067 117.638,90.68 128.974,90.68 128.974,106.732 
	168.643,106.732 168.643,67.098 179.979,67.098 "/>
<rect x="312.195" y="111.464" style="fill:#64798A;" width="34.004" height="325.682"/>
<polygon style="fill:#3EA69B;" points="360.391,118.067 298.051,118.067 298.051,90.68 309.386,90.68 309.386,106.732 
	349.056,106.732 349.056,67.098 360.391,67.098 "/>
<rect x="52.043" y="301.41" style="fill:#FCD462;" width="365.331" height="34.828"/>
<g>
	<rect x="64.955" y="336.232" style="fill:#DC8744;" width="30.882" height="119.82"/>
	<rect x="373.573" y="336.232" style="fill:#DC8744;" width="30.882" height="119.82"/>
</g>
<g>
</g>
<g>
</g>
<g>
</g>
<g>
</g>
<g>
</g>
<g>
</g>
<g>
</g>
<g>
</g>
<g>
</g>
<g>
</g>
<g>
</g>
<g>
</g>
<g>
</g>
<g>
</g>
<g>
</g>
</svg>
