<svg id="Capa_1" enable-background="new 0 0 512 512" height="512" viewBox="0 0 512 512" width="512" xmlns="http://www.w3.org/2000/svg"><g><g><path d="m410.921 512h-335.958c-2.761 0-5-2.239-5-5v-476.605c0-2.761 2.239-5 5-5h335.958c2.761 0 5 2.239 5 5v476.605c0 2.761-2.238 5-5 5z" fill="#756e78"/></g><g><path d="m410.923 25.395h-41.714v434.895c0 2.76-2.238 4.998-4.998 4.998h-294.248v41.714c0 2.76 2.238 4.998 4.998 4.998h335.962c2.76 0 4.998-2.238 4.998-4.998v-476.609c0-2.761-2.237-4.998-4.998-4.998z" fill="#665e66"/></g><g><path d="m235.442 33.064h15v478.936h-15z" fill="#665e66"/></g><g><path d="m423.093 378.187h-91.909c-10.462 0-18.944-8.481-18.944-18.944v-180.092c0-10.462 8.481-18.944 18.944-18.944h91.909c10.462 0 18.944 8.481 18.944 18.944v180.092c0 10.462-8.482 18.944-18.944 18.944z" fill="#f1f4f6"/></g><g><path d="m423.1 160.208h-1.537v178.569c0 10.458-8.478 18.936-18.936 18.936h-90.387v1.537c0 10.458 8.478 18.936 18.936 18.936h91.924c10.458 0 18.936-8.478 18.936-18.936v-180.106c.001-10.458-8.478-18.936-18.936-18.936z" fill="#dfeaef"/></g><g><g><path d="m344.244 229.62 30.877-30.354c1.578-1.551 4.116-1.526 5.663.057l29.666 30.354c2.474 2.532.681 6.793-2.86 6.793h-60.542c-3.579 0-5.356-4.341-2.804-6.85z" fill="#756e78"/></g></g><g><g><path d="m344.244 309.617 30.877 30.353c1.578 1.551 4.116 1.526 5.663-.057l29.666-30.353c2.474-2.532.681-6.793-2.859-6.793h-60.542c-3.58 0-5.357 4.341-2.805 6.85z" fill="#756e78"/></g></g><g><path d="m410.449 229.677-29.666-30.354c-1.547-1.583-4.085-1.608-5.663-.057l-10.272 10.097 19.852 20.313c2.474 2.532.681 6.793-2.86 6.793h25.747c3.543.001 5.336-4.26 2.862-6.792z" fill="#665e66"/></g><g><path d="m407.59 302.767h-25.747c3.54 0 5.334 4.261 2.86 6.793l-19.852 20.313 10.271 10.098c1.578 1.551 4.116 1.526 5.663-.057l29.666-30.353c2.472-2.533.679-6.794-2.861-6.794z" fill="#665e66"/></g><g><path d="m371.512 74.249h-257.139c-6.438 0-11.656-5.219-11.656-11.656v-50.937c0-6.437 5.219-11.656 11.656-11.656h257.139c6.438 0 11.656 5.219 11.656 11.656v50.936c0 6.438-5.219 11.657-11.656 11.657z" fill="#f1f4f6"/></g><g><path d="m371.516 0h-9.909v41.036c0 6.435-5.217 11.652-11.652 11.652h-247.238v9.909c0 6.435 5.217 11.652 11.652 11.652h257.148c6.435 0 11.652-5.217 11.652-11.652v-50.945c-.001-6.435-5.218-11.652-11.653-11.652z" fill="#dfeaef"/></g><g><g><circle cx="146.043" cy="37.124" fill="#5766cb" r="11.73"/></g><g><circle cx="194.493" cy="37.124" fill="#5766cb" r="11.73"/></g><g><circle cx="242.942" cy="37.124" fill="#5766cb" r="11.73"/></g><g><circle cx="291.392" cy="37.124" fill="#eab14d" r="11.73"/></g><g><circle cx="339.841" cy="37.124" fill="#5766cb" r="11.73"/></g></g><g><path d="m407.598 276.742h-59.559c-4.142 0-7.5-3.358-7.5-7.5s3.358-7.5 7.5-7.5h59.559c4.142 0 7.5 3.358 7.5 7.5s-3.358 7.5-7.5 7.5z" fill="#665e66"/></g></g></svg>