<svg id="Layer_3" enable-background="new 0 0 64 64" height="512" viewBox="0 0 64 64" width="512" xmlns="http://www.w3.org/2000/svg"><path d="m20 2h40v56h-40z" fill="#575757"/><path d="m20 2h37v56h-37z" fill="#828282"/><path d="m44 16h6v10h-6z" fill="#71dbfb"/><path d="m44 16h3v10h-3z" fill="#aae9fd"/><path d="m44 30h6v10h-6z" fill="#71dbfb"/><path d="m44 30h3v10h-3z" fill="#aae9fd"/><path d="m20 2h10v10h-10z" fill="#71dbfb"/><path d="m20 2h6v10h-6z" fill="#aae9fd"/><path d="m30 2h10v10h-10z" fill="#71dbfb"/><path d="m30 2h6v10h-6z" fill="#aae9fd"/><path d="m40 2h10v10h-10z" fill="#71dbfb"/><path d="m40 2h6v10h-6z" fill="#aae9fd"/><path d="m50 2h10v10h-10z" fill="#71dbfb"/><path d="m50 2h6v10h-6z" fill="#aae9fd"/><path d="m50 16h10v10h-10z" fill="#71dbfb"/><path d="m50 16h6v10h-6z" fill="#aae9fd"/><path d="m50 30h10v10h-10z" fill="#71dbfb"/><path d="m50 30h6v10h-6z" fill="#aae9fd"/><path d="m4 16h40v42h-40z" fill="#adadad"/><path d="m4 16h37v42h-37z" fill="#ccc"/><path d="m8 48h6v10h-6z" fill="#957552"/><path d="m8 48h3v10h-3z" fill="#c69c6d"/><path d="m14 48h6v10h-6z" fill="#957552"/><path d="m14 48h3v10h-3z" fill="#c69c6d"/><path d="m28 48h6v10h-6z" fill="#957552"/><path d="m28 48h3v10h-3z" fill="#c69c6d"/><path d="m34 48h6v10h-6z" fill="#957552"/><path d="m34 48h3v10h-3z" fill="#c69c6d"/><path d="m44 48h6v10h-6z" fill="#957552"/><path d="m44 48h3v10h-3z" fill="#c69c6d"/><path d="m4 30h10v10h-10z" fill="#71dbfb"/><path d="m4 30h6v10h-6z" fill="#aae9fd"/><path d="m14 30h10v10h-10z" fill="#71dbfb"/><path d="m14 30h6v10h-6z" fill="#aae9fd"/><path d="m24 30h10v10h-10z" fill="#71dbfb"/><path d="m24 30h6v10h-6z" fill="#aae9fd"/><path d="m34 30h10v10h-10z" fill="#71dbfb"/><path d="m34 30h6v10h-6z" fill="#aae9fd"/><path d="m2 58h60v4h-60z" fill="#808080"/><path d="m2 58h57v4h-57z" fill="#999"/><g fill="#5f9747"><path d="m17 27h-2v-2.764l-.105.211c-.339.678-1.45.678-1.789 0l-.106-.211v2.764h-2v-7c0-.464.319-.867.77-.973.454-.105.917.111 1.125.526l1.105 2.211 1.105-2.211c.208-.415.67-.632 1.125-.526.451.106.77.509.77.973z"/><path d="m22 19c-1.654 0-3 1.346-3 3v5h2v-2h2v2h2v-5c0-1.654-1.346-3-3-3zm-1 4v-1c0-.551.449-1 1-1s1 .449 1 1v1z"/><path d="m31 27h-3c-.552 0-1-.448-1-1v-7h2v6h2z"/><path d="m37 27h-3c-.552 0-1-.448-1-1v-7h2v6h2z"/><path d="m7 43h14v2h-14z"/><path d="m27 43h14v2h-14z"/></g></svg>