<svg id="Capa_1" enable-background="new 0 0 512 512" height="512" viewBox="0 0 512 512" width="512" xmlns="http://www.w3.org/2000/svg"><g><g><g><path d="m464.929 227.535h-125.832c-25.997 0-47.071-21.074-47.071-47.071v-125.833c0-25.997 21.074-47.071 47.071-47.071h125.832c25.997 0 47.071 21.075 47.071 47.071v125.832c0 25.997-21.074 47.072-47.071 47.072z" fill="#5766cb"/></g><g><path d="m478.198 9.486c1.246 4.231 1.926 8.704 1.926 13.338v125.694c0 26.035-21.105 47.14-47.14 47.14h-125.694c-4.634 0-9.108-.68-13.339-1.926 5.755 19.536 23.813 33.802 45.214 33.802h125.695c26.035 0 47.14-21.105 47.14-47.14v-125.694c0-21.4-14.265-39.458-33.802-45.214z" fill="#3d4fc3"/></g><g><g><path d="m378.032 188.898c-4.149 0-7.511-3.362-7.511-7.511v-113.945c0-4.149 3.362-7.511 7.511-7.511s7.511 3.362 7.511 7.511v113.945c0 4.149-3.362 7.511-7.511 7.511z" fill="#f1f4f6"/></g><g><path d="m378.253 139.406c-1.976 0-3.872-.778-5.278-2.167-1.417-1.4-2.22-3.306-2.233-5.298-.001-.234-.142-23.472-.142-32.343 0-7.347-.079-32.131-.079-32.131-.006-1.997.782-3.913 2.192-5.327 1.409-1.413 3.323-2.208 5.319-2.208h31.727c22.219 0 40.296 17.795 40.296 39.667s-18.077 39.667-40.296 39.667c-8.683 0-31.232.14-31.459.142-.015-.002-.031-.002-.047-.002zm7.313-64.453c.023 7.931.057 19.907.057 24.645 0 5.631.057 17.109.099 24.742 7.447-.042 18.516-.098 24.038-.098 13.7 0 25.274-11.286 25.274-24.644s-11.575-24.645-25.274-24.645z" fill="#f1f4f6"/></g></g></g><g><g><path d="m409.248 306.96-23.58-100.917c-2.942-12.592-14.17-21.499-27.102-21.499h-266.495c-12.931 0-24.159 8.907-27.102 21.499l-23.58 100.917z" fill="#d3effb"/></g><g><path d="m385.668 206.043c-2.942-12.592-14.17-21.499-27.102-21.499h-26.968l7.701 32.958c3.701 15.841-8.322 30.998-24.589 30.998h-259.661l-13.66 58.461h367.859z" fill="#b1e4f9"/></g><g><path d="m409.248 314.471h-367.859c-2.292 0-4.46-1.047-5.885-2.843-1.425-1.797-1.951-4.145-1.43-6.377l23.58-100.916c3.756-16.075 17.909-27.302 34.416-27.302h266.496c16.508 0 30.66 11.226 34.416 27.301l23.58 100.917c.521 2.232-.005 4.58-1.43 6.377-1.424 1.795-3.592 2.843-5.884 2.843zm-358.391-15.022h348.923l-21.426-91.697c-2.159-9.242-10.296-15.697-19.788-15.697h-266.496c-9.49 0-17.627 6.455-19.787 15.698z" fill="#ac80dd"/></g><g><g><path d="m101.244 504.44h-44.524c-6.075 0-11-4.925-11-11v-43.839h66.524v43.839c0 6.075-4.925 11-11 11z" fill="#756e78"/></g></g><g><g><path d="m393.917 504.44h-44.524c-6.075 0-11-4.925-11-11v-43.839h66.524v43.839c0 6.075-4.925 11-11 11z" fill="#756e78"/></g></g><g><path d="m90.64 449.601v42.593c0 6.763-5.483 12.246-12.246 12.246h22.834c6.084 0 11.016-4.932 11.016-11.016v-43.823z" fill="#665e66"/></g><g><path d="m383.313 449.601v42.593c0 6.763-5.483 12.246-12.246 12.246h22.834c6.084 0 11.016-4.932 11.016-11.016v-43.823z" fill="#665e66"/></g><g><g><path d="m406.637 461.918h-362.637c-24.301 0-44-19.699-44-44v-83.109c0-25.095 20.344-45.439 45.439-45.439h360.759c24.543 0 44.439 19.896 44.439 44.439v84.109c0 24.301-19.699 44-44 44z" fill="#bc95e2"/></g></g><g><path d="m409.391 289.501c.078 1.077.132 2.161.132 3.258v83.98c0 24.336-19.728 44.065-44.065 44.065h-362.508c-.958 0-1.906-.041-2.848-.101 1.469 23.007 20.585 41.216 43.963 41.216h362.508c24.336 0 44.065-19.728 44.065-44.065v-83.979c-.001-23.483-18.191-42.704-41.247-44.374z" fill="#ac80dd"/></g><g><g><path d="m415.849 345.22h-73.62c-5.776 0-10.459 4.682-10.459 10.459v5.655c0 20.173 16.354 36.527 36.527 36.527h47.552c6.148 0 11.133-4.984 11.133-11.133v-30.376c-.001-6.148-4.985-11.132-11.133-11.132z" fill="#f1f4f6"/></g><g><path d="m111.263 345.22h-73.62c-6.148 0-11.133 4.984-11.133 11.133v30.376c0 6.148 4.984 11.133 11.133 11.133h47.552c20.173 0 36.527-16.354 36.527-36.527v-5.655c-.001-5.778-4.683-10.46-10.459-10.46z" fill="#f1f4f6"/></g><g><path d="m404.772 345.22v11.582c0 11.856-9.611 21.467-21.467 21.467h-37.218c-3.826 0-7.514-.591-10.98-1.682 5.779 12.554 18.462 21.274 33.189 21.274h47.552c6.148 0 11.133-4.984 11.133-11.133v-30.376c0-6.148-4.984-11.133-11.133-11.133h-11.076z" fill="#dfeaef"/></g><g><path d="m111.263 345.22h-11.92c-1.752 18.541-17.358 33.049-36.358 33.049h-36.475v8.46c0 6.148 4.984 11.133 11.133 11.133h47.552c20.173 0 36.527-16.354 36.527-36.527v-5.655c-.001-5.778-4.683-10.46-10.459-10.46z" fill="#dfeaef"/></g></g><g><path d="m263.052 411.471h-75.467c-10.42 0-18.867-8.447-18.867-18.867v-.055c0-10.42 8.447-18.867 18.867-18.867h75.467c10.42 0 18.867 8.447 18.867 18.867v.055c0 10.42-8.447 18.867-18.867 18.867z" fill="#f1f4f6"/></g><g><path d="m266.621 374.033c.225 1.165.352 2.366.352 3.597 0 10.435-8.459 18.895-18.895 18.895h-75.411c-1.231 0-2.431-.127-3.597-.352 1.681 8.714 9.339 15.298 18.543 15.298h75.411c10.435 0 18.895-8.459 18.895-18.895 0-9.204-6.584-16.862-15.298-18.543z" fill="#dfeaef"/></g></g></g></svg>