<?xml version="1.0" encoding="iso-8859-1"?>
<!-- Generator: Adobe Illustrator 19.0.0, SVG Export Plug-In . SVG Version: 6.00 Build 0)  -->
<svg version="1.1" id="Capa_1" xmlns="http://www.w3.org/2000/svg" xmlns:xlink="http://www.w3.org/1999/xlink" x="0px" y="0px"
	 viewBox="0 0 464 464" style="enable-background:new 0 0 464 464;" xml:space="preserve">
<g>
	
		<rect x="348.721" y="283.996" transform="matrix(-0.7071 0.7071 -0.7071 -0.7071 821.0874 243.8874)" style="fill:#EC8600;" width="22.624" height="16"/>
	
		<rect x="388.721" y="243.996" transform="matrix(-0.7071 0.7071 -0.7071 -0.7071 861.0868 147.3175)" style="fill:#EC8600;" width="22.624" height="16"/>
	
		<rect x="52.688" y="283.997" transform="matrix(-0.7071 0.7071 -0.7071 -0.7071 315.7286 453.215)" style="fill:#EC8600;" width="22.624" height="16"/>
	
		<rect x="92.688" y="244.004" transform="matrix(-0.7071 0.7071 -0.7071 -0.7071 355.7337 356.6588)" style="fill:#EC8600;" width="22.624" height="16"/>
</g>
<path style="fill:#FF9811;" d="M464,332H304c-2.121,0-4.156-0.844-5.656-2.344l-144-144l11.313-11.313L307.313,316H464V332z"/>
<g>
	<path style="fill:#EC8600;" d="M160,332H0v-16h156.688l53.656-53.656l11.313,11.313l-56,56C164.156,331.156,162.121,332,160,332z"
		/>
	
		<rect x="236.399" y="200.015" transform="matrix(-0.7071 0.7071 -0.7071 -0.7071 618.2431 159.946)" style="fill:#EC8600;" width="79.192" height="16"/>
</g>
<g>
	
		<rect x="371.998" y="232.401" transform="matrix(-0.7071 0.7071 -0.7071 -0.7071 841.0284 195.6291)" style="fill:#FF9811;" width="16" height="79.192"/>
	
		<rect x="75.998" y="232.402" transform="matrix(-0.7071 0.7071 -0.7071 -0.7071 335.7243 404.9341)" style="fill:#FF9811;" width="16" height="79.192"/>
</g>
<g>
	<rect x="256" y="116" style="fill:#F40E34;" width="32" height="32"/>
	<rect x="288" y="124" style="fill:#F40E34;" width="24" height="16"/>
</g>
<rect x="176" y="68" style="fill:#1E81CE;" width="32" height="80"/>
<rect x="176" y="36" style="fill:#F40E34;" width="32" height="32"/>
<g>
	<rect x="248" y="76" style="fill:#5AAAE7;" width="16" height="16"/>
	<rect x="280" y="76" style="fill:#5AAAE7;" width="16" height="16"/>
</g>
<g>
	<rect x="128" y="172" style="fill:#69C229;" width="208" height="16"/>
	<rect x="336" y="236" style="fill:#69C229;" width="88" height="16"/>
	<rect x="40" y="236" style="fill:#69C229;" width="88" height="16"/>
	<rect y="332" style="fill:#69C229;" width="464" height="24"/>
</g>
<rect y="356" style="fill:#A38563;" width="464" height="32"/>
<rect y="388" style="fill:#806749;" width="464" height="40"/>
<g>
</g>
<g>
</g>
<g>
</g>
<g>
</g>
<g>
</g>
<g>
</g>
<g>
</g>
<g>
</g>
<g>
</g>
<g>
</g>
<g>
</g>
<g>
</g>
<g>
</g>
<g>
</g>
<g>
</g>
</svg>
