<svg height="512pt" viewBox="-1 0 512 512" width="512pt" xmlns="http://www.w3.org/2000/svg"><path d="m21.1875 124.476562h467.996094v366.238282h-467.996094zm0 0" fill="#fdedd3"/><path d="m489.046875 124.292969-62.605469.050781.277344 366.1875-405.394531.316406v.046875l468-.363281zm0 0" fill="#fae3be"/><path d="m15.921875 134.769531c-8.785156.007813-15.9140625-7.109375-15.921875-15.894531s7.109375-15.914062 15.894531-15.921875l478.261719-.371094c8.785156-.007812 15.914062 7.109375 15.921875 15.894531.007813 8.785157-7.109375 15.914063-15.894531 15.921876zm0 0" fill="#c9c6ca"/><path d="m494.15625 102.582031-44.460938.035157c8.460938.359374 15.21875 7.308593 15.226563 15.863281.003906 8.785156-7.113281 15.910156-15.898437 15.917969l-433.796876.335937c.230469.011719.460938.035156.695313.035156l478.261719-.371093c8.785156-.007813 15.902344-7.132813 15.894531-15.917969-.007813-8.785157-7.136719-15.90625-15.921875-15.898438zm0 0" fill="#b7b2b8"/><path d="m68.164062 10.492188.144532 183.761718 373.578125-.289062-.144531-183.765625c-.003907-5.636719-4.578126-10.20312525-10.214844-10.199219l-353.160156.273438c-5.636719.003906-10.207032 4.578124-10.203126 10.21875zm0 0" fill="#fecf89"/><path d="m441.742188 10.199219c-.003907-5.636719-4.578126-10.20312525-10.214844-10.199219l-44.464844.0351562c5.3125.3554688 9.519531 4.7617188 9.523438 10.1679688l.144531 183.761719-328.421875.253906v.035156l373.578125-.289062zm0 0" fill="#f7c272"/><path d="m257.835938 93.015625 18.625-47.863281s21.285156 16.160156 40.105468 23.480468c19.671875 7.65625 45.425782 9.800782 45.425782 9.800782l-23.628907 60.726562c-9.191406 23.617188-35.785156 35.316406-59.402343 26.125-16.015626-6.230468-27.621094-20.347656-28.804688-36.339844-.726562-9.753906 2.765625-20.019531 7.679688-35.929687zm0 0" fill="#5c525f"/><path d="m223.453125 145.308594c-24.304687 7.175781-49.828125-6.710938-57.003906-31.015625l-18.449219-62.496094s26.726562-.234375 46.089844-5.953125c20.246094-5.972656 41.933594-20.03125 41.933594-20.03125l18.449218 62.496094c7.175782 24.304687-6.710937 49.824218-31.019531 57zm0 0" fill="#fdedd3"/><path d="m119.257812 448.515625 271.082032-.210937.015625 35.15625-271.082031.140624zm0 0" fill="#dbd9dc"/><path d="m.292969 480.214844h510.078125v31.589844h-510.078125zm0 0" fill="#c9c6ca"/><path d="m510.359375 480.019531-45.160156.035157.027343 31.550781-464.921874.359375v.035156l510.078124-.394531zm0 0" fill="#b7b2b8"/><path d="m.28125 480.414062 510.078125-.394531" fill="#c9c6ca"/><path d="m142.523438 194.859375.191406 257.96875-36.480469.027344-.191406-257.980469zm0 0" fill="#dbd9dc"/><path d="m144.609375 480.191406-42.09375.035156c-8.785156.007813-15.90625-7.109374-15.914063-15.890624-.007812-8.785157 7.105469-15.910157 15.890626-15.917969l42.09375-.03125c8.785156-.007813 15.90625 7.109375 15.914062 15.890625s-7.105469 15.90625-15.890625 15.914062zm0 0" fill="#b7b2b8"/><path d="m181.695312 194.839844c.011719 15.847656-12.824218 28.703125-28.671874 28.714844-15.847657.011718-28.703126-12.824219-28.714844-28.671876zm0 0" fill="#b7b2b8"/><path d="m125.183594 194.882812c.011718 15.847657-12.824219 28.703126-28.671875 28.714844-15.847657.011719-28.703125-12.824218-28.714844-28.671875zm0 0" fill="#c9c6ca"/><path d="m403.230469 194.65625.191406 255.917969-36.480469.027343-.191406-255.925781zm0 0" fill="#dbd9dc"/><path d="m405.316406 479.992188-42.09375.03125c-8.785156.007812-15.910156-7.109376-15.917968-15.890626-.003907-8.785156 7.109374-15.90625 15.890624-15.914062l42.097657-.035156c8.78125-.007813 15.90625 7.109375 15.914062 15.890625.007813 8.785156-7.105469 15.910156-15.890625 15.917969zm0 0" fill="#b7b2b8"/><path d="m442.398438 194.636719c.011718 15.847656-12.824219 28.703125-28.671876 28.714843-15.84375.011719-28.699218-12.824218-28.714843-28.671874zm0 0" fill="#b7b2b8"/><path d="m385.890625 194.679688c.011719 15.847656-12.824219 28.703124-28.671875 28.714843s-28.703125-12.824219-28.714844-28.671875zm0 0" fill="#c9c6ca"/><g fill="#f7c272"><path d="m204.953125 311.109375h100.578125v136.5h-100.578125zm0 0"/><path d="m61.734375 324.089844c-4.25 0-7.695313-3.441406-7.699219-7.691406l-.03125-37.972657c-.003906-4.253906 3.441406-7.703125 7.691406-7.703125h.003907c4.25-.003906 7.695312 3.441406 7.699219 7.691406l.03125 37.972657c.003906 4.25-3.441407 7.699219-7.691407 7.703125 0 0 0 0-.003906 0zm0 0"/><path d="m61.808594 414.40625c-4.253906 0-7.699219-3.441406-7.703125-7.691406l-.03125-37.976563c0-4.25 3.441406-7.699219 7.691406-7.703125h.003906c4.25 0 7.699219 3.441406 7.699219 7.691406l.03125 37.976563c.003906 4.25-3.441406 7.699219-7.691406 7.703125zm0 0"/><path d="m445.578125 323.792969c-4.253906 0-7.699219-3.441407-7.703125-7.691407l-.027344-37.976562c-.003906-4.25 3.4375-7.699219 7.6875-7.703125h.003906c4.25 0 7.699219 3.441406 7.703126 7.691406l.027343 37.976563c.003907 4.25-3.441406 7.699218-7.691406 7.703125zm0 0"/><path d="m445.648438 414.105469c-4.253907.003906-7.699219-3.441407-7.703126-7.691407l-.03125-37.972656c0-4.25 3.441407-7.699218 7.691407-7.703125h.003906c4.25-.003906 7.699219 3.441407 7.699219 7.691407l.03125 37.972656c.003906 4.25-3.441406 7.699218-7.691406 7.703125zm0 0"/></g><path d="m179.226562 273.136719h151.894532v37.972656h-151.894532zm0 0" fill="#b7b2b8"/><path d="m186.4375 85.945312c9.90625-.003906 9.914062-15.398437-.007812-15.394531-9.90625.007813-9.914063 15.402344.007812 15.394531zm0 0" fill="#fecf89"/><path d="m218.125 76.589844c9.90625-.003906 9.914062-15.398438-.007812-15.394532-9.90625.007813-9.914063 15.402344.007812 15.394532zm0 0" fill="#fecf89"/><path d="m225.46875 96.707031c2.042969 6.925781-3.035156 14.53125-11.347656 16.984375s-16.707032-1.171875-18.753906-8.101562zm0 0" fill="#fecf89"/><path d="m290.691406 97.285156c9.90625-.007812 9.914063-15.402344-.007812-15.398437-9.90625.007812-9.917969 15.402343.007812 15.398437zm0 0" fill="#f7c272"/><path d="m321.480469 109.265625c9.90625-.007813 9.914062-15.402344-.007813-15.394531-9.90625.003906-9.914062 15.398437.007813 15.394531zm0 0" fill="#f7c272"/><path d="m276.289062 128.867188c2.617188-6.730469 11.289063-9.636719 19.363282-6.496094 8.078125 3.144531 12.503906 11.148437 9.882812 17.878906zm0 0" fill="#f7c272"/></svg>