<svg id="Layer_1" enable-background="new 0 0 512 512" height="512" viewBox="0 0 512 512" width="512" xmlns="http://www.w3.org/2000/svg"><g><g fill="#50c8ff"><path d="m501.75 177.949-8.843-8.843c-67.771-67.762-155.269-98.127-236.907-98.127-81.571 0-169.097 30.325-236.907 98.127l-8.843 8.843c-6.61 6.61-10.25 15.4-10.25 24.75 0 9.221 3.736 18.244 10.25 24.759 13.648 13.643 35.86 13.642 49.511-.003l8.84-8.84c50.058-50.059 116.61-77.626 187.399-77.626s137.341 27.567 187.398 77.625l8.845 8.846c13.647 13.641 35.859 13.64 49.51-.005 6.511-6.512 10.247-15.535 10.247-24.756 0-9.35-3.64-18.14-10.25-24.75z"/><path d="m422.185 239.827c-44.391-44.391-103.41-68.838-166.185-68.838s-121.794 24.447-166.185 68.838l-8.841 8.842c-13.68 13.674-13.691 35.813-.002 49.502 13.564 13.563 35.699 13.795 49.514-.006l8.829-8.829c32.17-32.17 74.428-48.255 116.685-48.255s84.515 16.085 116.685 48.255l8.834 8.835c13.849 13.834 35.988 13.52 49.509 0 13.67-13.67 13.694-35.812.002-49.497z"/><path d="m351.472 310.549c-26.322-26.321-60.897-39.482-95.472-39.482s-69.15 13.161-95.472 39.482l-8.834 8.835c-13.526 13.512-13.837 35.687-.005 49.503 13.674 13.681 35.811 13.7 49.505.006l8.843-8.843c12.277-12.276 28.6-19.037 45.964-19.037s33.687 6.761 45.963 19.036l8.843 8.843c13.67 13.67 35.813 13.688 49.5.001 13.56-13.545 13.807-35.717.006-49.503z"/><path d="m256 371.013c-19.304 0-35.009 15.705-35.009 35.009 0 19.299 15.705 34.999 35.009 34.999s35.009-15.7 35.009-34.999c0-19.304-15.705-35.009-35.009-35.009z"/></g><g fill="#3291ff"><path d="m452.243 227.46c13.647 13.641 35.859 13.64 49.51-.005 6.511-6.512 10.247-15.535 10.247-24.756 0-9.351-3.64-18.141-10.25-24.75l-8.843-8.843c-67.771-67.762-155.269-98.127-236.907-98.127v70.01c70.789 0 137.341 27.567 187.398 77.625z"/><path d="m381.52 298.171c13.849 13.834 35.988 13.52 49.509 0 13.67-13.67 13.695-35.812.002-49.497l-8.846-8.847c-44.391-44.391-103.41-68.838-166.185-68.838v70.092c42.257 0 84.515 16.085 116.685 48.255z"/><path d="m310.806 368.892c13.67 13.67 35.813 13.688 49.5.001 13.56-13.545 13.807-35.718.006-49.503l-8.84-8.841c-26.322-26.321-60.897-39.482-95.472-39.482v69.946c17.364 0 33.687 6.761 45.963 19.036z"/><path d="m291.009 406.021c0-19.304-15.705-35.009-35.009-35.009v70.008c19.304.001 35.009-15.7 35.009-34.999z"/></g></g></svg>